<svg width="158" height="24" viewBox="0 0 158 24" fill="none" xmlns="http://www.w3.org/2000/svg">
<g clip-path="url(#clip0_23_614)">
<path d="M24.75 11.5006H9.925L14.4625 6.05059C14.6747 5.79532 14.7768 5.46622 14.7463 5.13568C14.7158 4.80515 14.5553 4.50026 14.3 4.28809C14.0447 4.07592 13.7156 3.97384 13.3851 4.00431C13.0546 4.03479 12.7497 4.19532 12.5375 4.45059L6.2875 11.9506C6.24545 12.0102 6.20785 12.0729 6.175 12.1381C6.175 12.2006 6.175 12.2381 6.0875 12.3006C6.03084 12.4439 6.00118 12.5965 6 12.7506C6.00118 12.9047 6.03084 13.0573 6.0875 13.2006C6.0875 13.2631 6.0875 13.3006 6.175 13.3631C6.20785 13.4283 6.24545 13.4909 6.2875 13.5506L12.5375 21.0506C12.655 21.1917 12.8022 21.3052 12.9686 21.3829C13.1349 21.4607 13.3164 21.5009 13.5 21.5006C13.7921 21.5012 14.0751 21.3994 14.3 21.2131C14.4266 21.1082 14.5312 20.9793 14.6079 20.8338C14.6846 20.6884 14.7318 20.5293 14.7469 20.3656C14.762 20.2018 14.7447 20.0367 14.6959 19.8797C14.6471 19.7227 14.5678 19.5769 14.4625 19.4506L9.925 14.0006H24.75C25.0815 14.0006 25.3995 13.8689 25.6339 13.6345C25.8683 13.4001 26 13.0821 26 12.7506C26 12.4191 25.8683 12.1011 25.6339 11.8667C25.3995 11.6323 25.0815 11.5006 24.75 11.5006Z" fill="#002855"/>
</g>
<path d="M35.215 6.365H39.04C40.05 6.365 40.84 6.63 41.41 7.16C41.99 7.69 42.28 8.38 42.28 9.23C42.28 9.77 42.135 10.25 41.845 10.67C41.555 11.08 41.185 11.36 40.735 11.51C41.275 11.64 41.72 11.935 42.07 12.395C42.43 12.845 42.61 13.39 42.61 14.03C42.61 14.9 42.31 15.615 41.71 16.175C41.11 16.725 40.315 17 39.325 17H35.215V6.365ZM37.255 10.76H38.725C39.195 10.76 39.565 10.64 39.835 10.4C40.105 10.16 40.24 9.835 40.24 9.425C40.24 9.015 40.105 8.695 39.835 8.465C39.575 8.225 39.2 8.105 38.71 8.105H37.255V10.76ZM37.255 15.275H38.935C39.435 15.275 39.825 15.155 40.105 14.915C40.395 14.665 40.54 14.325 40.54 13.895C40.54 13.465 40.4 13.12 40.12 12.86C39.85 12.6 39.465 12.47 38.965 12.47H37.255V15.275ZM43.5556 14.99C43.5556 14.36 43.7606 13.855 44.1706 13.475C44.5806 13.095 45.1106 12.855 45.7606 12.755L47.5756 12.485C47.9456 12.435 48.1306 12.26 48.1306 11.96C48.1306 11.68 48.0206 11.45 47.8006 11.27C47.5906 11.09 47.2856 11 46.8856 11C46.4656 11 46.1306 11.115 45.8806 11.345C45.6406 11.575 45.5056 11.86 45.4756 12.2L43.7056 11.825C43.7756 11.185 44.0906 10.62 44.6506 10.13C45.2106 9.64 45.9506 9.395 46.8706 9.395C47.9706 9.395 48.7806 9.66 49.3006 10.19C49.8206 10.71 50.0806 11.38 50.0806 12.2V15.83C50.0806 16.27 50.1106 16.66 50.1706 17H48.3406C48.2906 16.78 48.2656 16.485 48.2656 16.115C47.7956 16.845 47.0706 17.21 46.0906 17.21C45.3306 17.21 44.7156 16.99 44.2456 16.55C43.7856 16.11 43.5556 15.59 43.5556 14.99ZM46.5106 15.725C46.9806 15.725 47.3656 15.595 47.6656 15.335C47.9756 15.065 48.1306 14.625 48.1306 14.015V13.685L46.4656 13.94C45.8556 14.03 45.5506 14.34 45.5506 14.87C45.5506 15.11 45.6356 15.315 45.8056 15.485C45.9756 15.645 46.2106 15.725 46.5106 15.725ZM55.1773 11.24C54.6473 11.24 54.2023 11.425 53.8423 11.795C53.4823 12.165 53.3023 12.67 53.3023 13.31C53.3023 13.95 53.4823 14.46 53.8423 14.84C54.2123 15.21 54.6623 15.395 55.1923 15.395C55.6623 15.395 56.0373 15.275 56.3173 15.035C56.5973 14.785 56.7873 14.49 56.8873 14.15L58.6423 14.735C58.4623 15.415 58.0723 16 57.4723 16.49C56.8723 16.98 56.1123 17.225 55.1923 17.225C54.0923 17.225 53.1673 16.855 52.4173 16.115C51.6773 15.365 51.3073 14.43 51.3073 13.31C51.3073 12.18 51.6723 11.245 52.4023 10.505C53.1423 9.765 54.0523 9.395 55.1323 9.395C56.0723 9.395 56.8423 9.64 57.4423 10.13C58.0423 10.61 58.4273 11.195 58.5973 11.885L56.8123 12.485C56.5723 11.655 56.0273 11.24 55.1773 11.24ZM67.0643 9.62L64.1093 12.725L67.1243 17H64.6793L62.7293 14.18L61.9043 15.05V17H59.9093V6.14H61.9043V12.365L64.4543 9.62H67.0643ZM79.5743 8.33H76.2143V17H74.1293V8.33H70.7693V6.365H79.5743V8.33ZM81.2405 14.855C81.6105 15.225 82.0555 15.41 82.5755 15.41C83.0955 15.41 83.5355 15.225 83.8955 14.855C84.2655 14.485 84.4505 13.97 84.4505 13.31C84.4505 12.65 84.2655 12.135 83.8955 11.765C83.5355 11.395 83.0955 11.21 82.5755 11.21C82.0555 11.21 81.6105 11.395 81.2405 11.765C80.8805 12.135 80.7005 12.65 80.7005 13.31C80.7005 13.97 80.8805 14.485 81.2405 14.855ZM79.8005 10.505C80.5405 9.765 81.4655 9.395 82.5755 9.395C83.6855 9.395 84.6055 9.765 85.3355 10.505C86.0755 11.245 86.4455 12.18 86.4455 13.31C86.4455 14.44 86.0755 15.375 85.3355 16.115C84.6055 16.855 83.6855 17.225 82.5755 17.225C81.4655 17.225 80.5405 16.855 79.8005 16.115C79.0705 15.375 78.7055 14.44 78.7055 13.31C78.7055 12.18 79.0705 11.245 79.8005 10.505ZM93.5613 11.21H95.1963C95.7063 11.21 96.1113 11.075 96.4113 10.805C96.7113 10.525 96.8613 10.155 96.8613 9.695C96.8613 9.225 96.7113 8.855 96.4113 8.585C96.1213 8.305 95.7163 8.165 95.1963 8.165H93.5613V11.21ZM95.4513 12.995H93.5463V17H91.4763V6.365H95.4513C96.4913 6.365 97.3313 6.675 97.9713 7.295C98.6213 7.915 98.9463 8.71 98.9463 9.68C98.9463 10.65 98.6213 11.445 97.9713 12.065C97.3313 12.685 96.4913 12.995 95.4513 12.995ZM104.547 9.59V11.6C104.347 11.56 104.147 11.54 103.947 11.54C103.377 11.54 102.917 11.705 102.567 12.035C102.217 12.355 102.042 12.885 102.042 13.625V17H100.047V9.62H101.982V10.715C102.342 9.945 103.042 9.56 104.082 9.56C104.192 9.56 104.347 9.57 104.547 9.59ZM107.657 14.855C108.027 15.225 108.472 15.41 108.992 15.41C109.512 15.41 109.952 15.225 110.312 14.855C110.682 14.485 110.867 13.97 110.867 13.31C110.867 12.65 110.682 12.135 110.312 11.765C109.952 11.395 109.512 11.21 108.992 11.21C108.472 11.21 108.027 11.395 107.657 11.765C107.297 12.135 107.117 12.65 107.117 13.31C107.117 13.97 107.297 14.485 107.657 14.855ZM106.217 10.505C106.957 9.765 107.882 9.395 108.992 9.395C110.102 9.395 111.022 9.765 111.752 10.505C112.492 11.245 112.862 12.18 112.862 13.31C112.862 14.44 112.492 15.375 111.752 16.115C111.022 16.855 110.102 17.225 108.992 17.225C107.882 17.225 106.957 16.855 106.217 16.115C105.487 15.375 105.122 14.44 105.122 13.31C105.122 12.18 105.487 11.245 106.217 10.505ZM113.607 14.945L115.317 14.57C115.337 14.89 115.462 15.16 115.692 15.38C115.932 15.59 116.257 15.695 116.667 15.695C116.977 15.695 117.217 15.625 117.387 15.485C117.557 15.345 117.642 15.17 117.642 14.96C117.642 14.59 117.377 14.35 116.847 14.24L115.872 14.015C115.182 13.865 114.662 13.595 114.312 13.205C113.972 12.815 113.802 12.35 113.802 11.81C113.802 11.14 114.062 10.57 114.582 10.1C115.112 9.63 115.772 9.395 116.562 9.395C117.062 9.395 117.502 9.47 117.882 9.62C118.262 9.76 118.557 9.945 118.767 10.175C118.977 10.395 119.137 10.62 119.247 10.85C119.357 11.08 119.427 11.305 119.457 11.525L117.792 11.9C117.752 11.64 117.632 11.41 117.432 11.21C117.242 11.01 116.957 10.91 116.577 10.91C116.317 10.91 116.092 10.98 115.902 11.12C115.722 11.26 115.632 11.435 115.632 11.645C115.632 12.005 115.857 12.225 116.307 12.305L117.357 12.53C118.067 12.68 118.607 12.955 118.977 13.355C119.357 13.755 119.547 14.235 119.547 14.795C119.547 15.455 119.297 16.025 118.797 16.505C118.297 16.985 117.592 17.225 116.682 17.225C116.162 17.225 115.697 17.15 115.287 17C114.877 16.84 114.557 16.64 114.327 16.4C114.107 16.15 113.937 15.905 113.817 15.665C113.707 15.415 113.637 15.175 113.607 14.945ZM122.946 19.85H120.951V9.62H122.886V10.52C123.066 10.22 123.356 9.97 123.756 9.77C124.156 9.56 124.621 9.455 125.151 9.455C126.201 9.455 127.031 9.815 127.641 10.535C128.251 11.245 128.556 12.165 128.556 13.295C128.556 14.425 128.231 15.355 127.581 16.085C126.941 16.815 126.106 17.18 125.076 17.18C124.096 17.18 123.386 16.88 122.946 16.28V19.85ZM126.066 14.84C126.416 14.46 126.591 13.95 126.591 13.31C126.591 12.67 126.416 12.165 126.066 11.795C125.726 11.425 125.291 11.24 124.761 11.24C124.231 11.24 123.791 11.43 123.441 11.81C123.091 12.18 122.916 12.68 122.916 13.31C122.916 13.94 123.091 14.445 123.441 14.825C123.791 15.205 124.231 15.395 124.761 15.395C125.291 15.395 125.726 15.21 126.066 14.84ZM131.391 12.47H134.691C134.671 12.06 134.521 11.715 134.241 11.435C133.971 11.155 133.571 11.015 133.041 11.015C132.561 11.015 132.171 11.165 131.871 11.465C131.571 11.765 131.411 12.1 131.391 12.47ZM134.886 14.39L136.551 14.885C136.351 15.565 135.956 16.125 135.366 16.565C134.786 17.005 134.061 17.225 133.191 17.225C132.131 17.225 131.231 16.87 130.491 16.16C129.751 15.44 129.381 14.48 129.381 13.28C129.381 12.14 129.741 11.21 130.461 10.49C131.181 9.76 132.031 9.395 133.011 9.395C134.151 9.395 135.041 9.735 135.681 10.415C136.331 11.095 136.656 12.03 136.656 13.22C136.656 13.3 136.651 13.39 136.641 13.49C136.641 13.59 136.641 13.67 136.641 13.73L136.626 13.835H131.346C131.366 14.315 131.556 14.715 131.916 15.035C132.276 15.355 132.706 15.515 133.206 15.515C134.056 15.515 134.616 15.14 134.886 14.39ZM141.342 11.24C140.812 11.24 140.367 11.425 140.007 11.795C139.647 12.165 139.467 12.67 139.467 13.31C139.467 13.95 139.647 14.46 140.007 14.84C140.377 15.21 140.827 15.395 141.357 15.395C141.827 15.395 142.202 15.275 142.482 15.035C142.762 14.785 142.952 14.49 143.052 14.15L144.807 14.735C144.627 15.415 144.237 16 143.637 16.49C143.037 16.98 142.277 17.225 141.357 17.225C140.257 17.225 139.332 16.855 138.582 16.115C137.842 15.365 137.472 14.43 137.472 13.31C137.472 12.18 137.837 11.245 138.567 10.505C139.307 9.765 140.217 9.395 141.297 9.395C142.237 9.395 143.007 9.64 143.607 10.13C144.207 10.61 144.592 11.195 144.762 11.885L142.977 12.485C142.737 11.655 142.192 11.24 141.342 11.24ZM148.534 7.415V9.62H150.019V11.39H148.534V14.48C148.534 14.79 148.604 15.01 148.744 15.14C148.884 15.27 149.104 15.335 149.404 15.335C149.674 15.335 149.879 15.315 150.019 15.275V16.925C149.729 17.045 149.354 17.105 148.894 17.105C148.174 17.105 147.604 16.905 147.184 16.505C146.764 16.095 146.554 15.535 146.554 14.825V11.39H145.219V9.62H145.594C145.964 9.62 146.244 9.515 146.434 9.305C146.634 9.085 146.734 8.8 146.734 8.45V7.415H148.534ZM151.045 14.945L152.755 14.57C152.775 14.89 152.9 15.16 153.13 15.38C153.37 15.59 153.695 15.695 154.105 15.695C154.415 15.695 154.655 15.625 154.825 15.485C154.995 15.345 155.08 15.17 155.08 14.96C155.08 14.59 154.815 14.35 154.285 14.24L153.31 14.015C152.62 13.865 152.1 13.595 151.75 13.205C151.41 12.815 151.24 12.35 151.24 11.81C151.24 11.14 151.5 10.57 152.02 10.1C152.55 9.63 153.21 9.395 154 9.395C154.5 9.395 154.94 9.47 155.32 9.62C155.7 9.76 155.995 9.945 156.205 10.175C156.415 10.395 156.575 10.62 156.685 10.85C156.795 11.08 156.865 11.305 156.895 11.525L155.23 11.9C155.19 11.64 155.07 11.41 154.87 11.21C154.68 11.01 154.395 10.91 154.015 10.91C153.755 10.91 153.53 10.98 153.34 11.12C153.16 11.26 153.07 11.435 153.07 11.645C153.07 12.005 153.295 12.225 153.745 12.305L154.795 12.53C155.505 12.68 156.045 12.955 156.415 13.355C156.795 13.755 156.985 14.235 156.985 14.795C156.985 15.455 156.735 16.025 156.235 16.505C155.735 16.985 155.03 17.225 154.12 17.225C153.6 17.225 153.135 17.15 152.725 17C152.315 16.84 151.995 16.64 151.765 16.4C151.545 16.15 151.375 15.905 151.255 15.665C151.145 15.415 151.075 15.175 151.045 14.945Z" fill="#002855"/>
<defs>
<clipPath id="clip0_23_614">
<rect width="24" height="24" fill="white"/>
</clipPath>
</defs>
</svg>
