<svg width="139" height="24" viewBox="0 0 139 24" fill="none" xmlns="http://www.w3.org/2000/svg">
<g clip-path="url(#clip0_80_12499)">
<path d="M24.75 11.5006H9.925L14.4625 6.05059C14.6747 5.79532 14.7768 5.46622 14.7463 5.13568C14.7158 4.80515 14.5553 4.50026 14.3 4.28809C14.0447 4.07592 13.7156 3.97384 13.3851 4.00431C13.0546 4.03479 12.7497 4.19532 12.5375 4.45059L6.2875 11.9506C6.24545 12.0102 6.20785 12.0729 6.175 12.1381C6.175 12.2006 6.175 12.2381 6.0875 12.3006C6.03084 12.4439 6.00118 12.5965 6 12.7506C6.00118 12.9047 6.03084 13.0573 6.0875 13.2006C6.0875 13.2631 6.0875 13.3006 6.175 13.3631C6.20785 13.4283 6.24545 13.4909 6.2875 13.5506L12.5375 21.0506C12.655 21.1917 12.8022 21.3052 12.9686 21.3829C13.1349 21.4607 13.3164 21.5009 13.5 21.5006C13.7921 21.5012 14.0751 21.3994 14.3 21.2131C14.4266 21.1082 14.5312 20.9793 14.6079 20.8338C14.6846 20.6884 14.7318 20.5293 14.7469 20.3656C14.762 20.2018 14.7447 20.0367 14.6959 19.8797C14.6471 19.7227 14.5678 19.5769 14.4625 19.4506L9.925 14.0006H24.75C25.0815 14.0006 25.3995 13.8689 25.6339 13.6345C25.8683 13.4001 26 13.0821 26 12.7506C26 12.4191 25.8683 12.1011 25.6339 11.8667C25.3995 11.6323 25.0815 11.5006 24.75 11.5006Z" fill="#002855"/>
</g>
<path d="M35.215 6.365H39.04C40.05 6.365 40.84 6.63 41.41 7.16C41.99 7.69 42.28 8.38 42.28 9.23C42.28 9.77 42.135 10.25 41.845 10.67C41.555 11.08 41.185 11.36 40.735 11.51C41.275 11.64 41.72 11.935 42.07 12.395C42.43 12.845 42.61 13.39 42.61 14.03C42.61 14.9 42.31 15.615 41.71 16.175C41.11 16.725 40.315 17 39.325 17H35.215V6.365ZM37.255 10.76H38.725C39.195 10.76 39.565 10.64 39.835 10.4C40.105 10.16 40.24 9.835 40.24 9.425C40.24 9.015 40.105 8.695 39.835 8.465C39.575 8.225 39.2 8.105 38.71 8.105H37.255V10.76ZM37.255 15.275H38.935C39.435 15.275 39.825 15.155 40.105 14.915C40.395 14.665 40.54 14.325 40.54 13.895C40.54 13.465 40.4 13.12 40.12 12.86C39.85 12.6 39.465 12.47 38.965 12.47H37.255V15.275ZM43.5556 14.99C43.5556 14.36 43.7606 13.855 44.1706 13.475C44.5806 13.095 45.1106 12.855 45.7606 12.755L47.5756 12.485C47.9456 12.435 48.1306 12.26 48.1306 11.96C48.1306 11.68 48.0206 11.45 47.8006 11.27C47.5906 11.09 47.2856 11 46.8856 11C46.4656 11 46.1306 11.115 45.8806 11.345C45.6406 11.575 45.5056 11.86 45.4756 12.2L43.7056 11.825C43.7756 11.185 44.0906 10.62 44.6506 10.13C45.2106 9.64 45.9506 9.395 46.8706 9.395C47.9706 9.395 48.7806 9.66 49.3006 10.19C49.8206 10.71 50.0806 11.38 50.0806 12.2V15.83C50.0806 16.27 50.1106 16.66 50.1706 17H48.3406C48.2906 16.78 48.2656 16.485 48.2656 16.115C47.7956 16.845 47.0706 17.21 46.0906 17.21C45.3306 17.21 44.7156 16.99 44.2456 16.55C43.7856 16.11 43.5556 15.59 43.5556 14.99ZM46.5106 15.725C46.9806 15.725 47.3656 15.595 47.6656 15.335C47.9756 15.065 48.1306 14.625 48.1306 14.015V13.685L46.4656 13.94C45.8556 14.03 45.5506 14.34 45.5506 14.87C45.5506 15.11 45.6356 15.315 45.8056 15.485C45.9756 15.645 46.2106 15.725 46.5106 15.725ZM55.1773 11.24C54.6473 11.24 54.2023 11.425 53.8423 11.795C53.4823 12.165 53.3023 12.67 53.3023 13.31C53.3023 13.95 53.4823 14.46 53.8423 14.84C54.2123 15.21 54.6623 15.395 55.1923 15.395C55.6623 15.395 56.0373 15.275 56.3173 15.035C56.5973 14.785 56.7873 14.49 56.8873 14.15L58.6423 14.735C58.4623 15.415 58.0723 16 57.4723 16.49C56.8723 16.98 56.1123 17.225 55.1923 17.225C54.0923 17.225 53.1673 16.855 52.4173 16.115C51.6773 15.365 51.3073 14.43 51.3073 13.31C51.3073 12.18 51.6723 11.245 52.4023 10.505C53.1423 9.765 54.0523 9.395 55.1323 9.395C56.0723 9.395 56.8423 9.64 57.4423 10.13C58.0423 10.61 58.4273 11.195 58.5973 11.885L56.8123 12.485C56.5723 11.655 56.0273 11.24 55.1773 11.24ZM67.0643 9.62L64.1093 12.725L67.1243 17H64.6793L62.7293 14.18L61.9043 15.05V17H59.9093V6.14H61.9043V12.365L64.4543 9.62H67.0643ZM79.5743 8.33H76.2143V17H74.1293V8.33H70.7693V6.365H79.5743V8.33ZM81.2405 14.855C81.6105 15.225 82.0555 15.41 82.5755 15.41C83.0955 15.41 83.5355 15.225 83.8955 14.855C84.2655 14.485 84.4505 13.97 84.4505 13.31C84.4505 12.65 84.2655 12.135 83.8955 11.765C83.5355 11.395 83.0955 11.21 82.5755 11.21C82.0555 11.21 81.6105 11.395 81.2405 11.765C80.8805 12.135 80.7005 12.65 80.7005 13.31C80.7005 13.97 80.8805 14.485 81.2405 14.855ZM79.8005 10.505C80.5405 9.765 81.4655 9.395 82.5755 9.395C83.6855 9.395 84.6055 9.765 85.3355 10.505C86.0755 11.245 86.4455 12.18 86.4455 13.31C86.4455 14.44 86.0755 15.375 85.3355 16.115C84.6055 16.855 83.6855 17.225 82.5755 17.225C81.4655 17.225 80.5405 16.855 79.8005 16.115C79.0705 15.375 78.7055 14.44 78.7055 13.31C78.7055 12.18 79.0705 11.245 79.8005 10.505ZM91.4763 6.365H95.3013C96.3113 6.365 97.1013 6.63 97.6713 7.16C98.2513 7.69 98.5413 8.38 98.5413 9.23C98.5413 9.77 98.3963 10.25 98.1063 10.67C97.8163 11.08 97.4463 11.36 96.9963 11.51C97.5363 11.64 97.9813 11.935 98.3313 12.395C98.6913 12.845 98.8713 13.39 98.8713 14.03C98.8713 14.9 98.5713 15.615 97.9713 16.175C97.3713 16.725 96.5763 17 95.5863 17H91.4763V6.365ZM93.5163 10.76H94.9863C95.4563 10.76 95.8263 10.64 96.0963 10.4C96.3663 10.16 96.5013 9.835 96.5013 9.425C96.5013 9.015 96.3663 8.695 96.0963 8.465C95.8363 8.225 95.4613 8.105 94.9713 8.105H93.5163V10.76ZM93.5163 15.275H95.1963C95.6963 15.275 96.0863 15.155 96.3663 14.915C96.6563 14.665 96.8013 14.325 96.8013 13.895C96.8013 13.465 96.6613 13.12 96.3813 12.86C96.1113 12.6 95.7263 12.47 95.2263 12.47H93.5163V15.275ZM104.752 9.59V11.6C104.552 11.56 104.352 11.54 104.152 11.54C103.582 11.54 103.122 11.705 102.772 12.035C102.422 12.355 102.247 12.885 102.247 13.625V17H100.252V9.62H102.187V10.715C102.547 9.945 103.247 9.56 104.287 9.56C104.397 9.56 104.552 9.57 104.752 9.59ZM105.55 14.99C105.55 14.36 105.755 13.855 106.165 13.475C106.575 13.095 107.105 12.855 107.755 12.755L109.57 12.485C109.94 12.435 110.125 12.26 110.125 11.96C110.125 11.68 110.015 11.45 109.795 11.27C109.585 11.09 109.28 11 108.88 11C108.46 11 108.125 11.115 107.875 11.345C107.635 11.575 107.5 11.86 107.47 12.2L105.7 11.825C105.77 11.185 106.085 10.62 106.645 10.13C107.205 9.64 107.945 9.395 108.865 9.395C109.965 9.395 110.775 9.66 111.295 10.19C111.815 10.71 112.075 11.38 112.075 12.2V15.83C112.075 16.27 112.105 16.66 112.165 17H110.335C110.285 16.78 110.26 16.485 110.26 16.115C109.79 16.845 109.065 17.21 108.085 17.21C107.325 17.21 106.71 16.99 106.24 16.55C105.78 16.11 105.55 15.59 105.55 14.99ZM108.505 15.725C108.975 15.725 109.36 15.595 109.66 15.335C109.97 15.065 110.125 14.625 110.125 14.015V13.685L108.46 13.94C107.85 14.03 107.545 14.34 107.545 14.87C107.545 15.11 107.63 15.315 107.8 15.485C107.97 15.645 108.205 15.725 108.505 15.725ZM115.881 12.755V17H113.886V9.62H115.821V10.535C116.031 10.175 116.331 9.9 116.721 9.71C117.111 9.52 117.521 9.425 117.951 9.425C118.821 9.425 119.481 9.7 119.931 10.25C120.391 10.79 120.621 11.49 120.621 12.35V17H118.626V12.695C118.626 12.255 118.511 11.9 118.281 11.63C118.061 11.36 117.721 11.225 117.261 11.225C116.841 11.225 116.506 11.37 116.256 11.66C116.006 11.95 115.881 12.315 115.881 12.755ZM125.76 11.24C125.23 11.24 124.785 11.425 124.425 11.795C124.065 12.165 123.885 12.67 123.885 13.31C123.885 13.95 124.065 14.46 124.425 14.84C124.795 15.21 125.245 15.395 125.775 15.395C126.245 15.395 126.62 15.275 126.9 15.035C127.18 14.785 127.37 14.49 127.47 14.15L129.225 14.735C129.045 15.415 128.655 16 128.055 16.49C127.455 16.98 126.695 17.225 125.775 17.225C124.675 17.225 123.75 16.855 123 16.115C122.26 15.365 121.89 14.43 121.89 13.31C121.89 12.18 122.255 11.245 122.985 10.505C123.725 9.765 124.635 9.395 125.715 9.395C126.655 9.395 127.425 9.64 128.025 10.13C128.625 10.61 129.01 11.195 129.18 11.885L127.395 12.485C127.155 11.655 126.61 11.24 125.76 11.24ZM132.487 12.665V17H130.492V6.14H132.487V10.235C132.937 9.695 133.602 9.425 134.482 9.425C135.382 9.425 136.062 9.7 136.522 10.25C136.992 10.79 137.227 11.49 137.227 12.35V17H135.232V12.695C135.232 12.255 135.117 11.9 134.887 11.63C134.667 11.36 134.327 11.225 133.867 11.225C133.457 11.225 133.127 11.36 132.877 11.63C132.637 11.9 132.507 12.245 132.487 12.665Z" fill="#002855"/>
<defs>
<clipPath id="clip0_80_12499">
<rect width="24" height="24" fill="white"/>
</clipPath>
</defs>
</svg>
