<svg width="128" height="24" viewBox="0 0 128 24" fill="none" xmlns="http://www.w3.org/2000/svg">
<g clip-path="url(#clip0_7_3758)">
<path d="M24.75 11.5006H9.925L14.4625 6.05059C14.6747 5.79532 14.7768 5.46622 14.7463 5.13568C14.7158 4.80515 14.5553 4.50026 14.3 4.28809C14.0447 4.07592 13.7156 3.97384 13.3851 4.00431C13.0546 4.03479 12.7497 4.19532 12.5375 4.45059L6.2875 11.9506C6.24545 12.0102 6.20785 12.0729 6.175 12.1381C6.175 12.2006 6.175 12.2381 6.0875 12.3006C6.03084 12.4439 6.00118 12.5965 6 12.7506C6.00118 12.9047 6.03084 13.0573 6.0875 13.2006C6.0875 13.2631 6.0875 13.3006 6.175 13.3631C6.20785 13.4283 6.24545 13.4909 6.2875 13.5506L12.5375 21.0506C12.655 21.1917 12.8022 21.3052 12.9686 21.3829C13.1349 21.4607 13.3164 21.5009 13.5 21.5006C13.7921 21.5012 14.0751 21.3994 14.3 21.2131C14.4266 21.1082 14.5312 20.9793 14.6079 20.8338C14.6846 20.6884 14.7318 20.5293 14.7469 20.3656C14.762 20.2018 14.7447 20.0367 14.6959 19.8797C14.6471 19.7227 14.5678 19.5769 14.4625 19.4506L9.925 14.0006H24.75C25.0815 14.0006 25.3995 13.8689 25.6339 13.6345C25.8683 13.4001 26 13.0821 26 12.7506C26 12.4191 25.8683 12.1011 25.6339 11.8667C25.3995 11.6323 25.0815 11.5006 24.75 11.5006Z" fill="#002855"/>
</g>
<path d="M35.215 6.365H39.04C40.05 6.365 40.84 6.63 41.41 7.16C41.99 7.69 42.28 8.38 42.28 9.23C42.28 9.77 42.135 10.25 41.845 10.67C41.555 11.08 41.185 11.36 40.735 11.51C41.275 11.64 41.72 11.935 42.07 12.395C42.43 12.845 42.61 13.39 42.61 14.03C42.61 14.9 42.31 15.615 41.71 16.175C41.11 16.725 40.315 17 39.325 17H35.215V6.365ZM37.255 10.76H38.725C39.195 10.76 39.565 10.64 39.835 10.4C40.105 10.16 40.24 9.835 40.24 9.425C40.24 9.015 40.105 8.695 39.835 8.465C39.575 8.225 39.2 8.105 38.71 8.105H37.255V10.76ZM37.255 15.275H38.935C39.435 15.275 39.825 15.155 40.105 14.915C40.395 14.665 40.54 14.325 40.54 13.895C40.54 13.465 40.4 13.12 40.12 12.86C39.85 12.6 39.465 12.47 38.965 12.47H37.255V15.275ZM43.5556 14.99C43.5556 14.36 43.7606 13.855 44.1706 13.475C44.5806 13.095 45.1106 12.855 45.7606 12.755L47.5756 12.485C47.9456 12.435 48.1306 12.26 48.1306 11.96C48.1306 11.68 48.0206 11.45 47.8006 11.27C47.5906 11.09 47.2856 11 46.8856 11C46.4656 11 46.1306 11.115 45.8806 11.345C45.6406 11.575 45.5056 11.86 45.4756 12.2L43.7056 11.825C43.7756 11.185 44.0906 10.62 44.6506 10.13C45.2106 9.64 45.9506 9.395 46.8706 9.395C47.9706 9.395 48.7806 9.66 49.3006 10.19C49.8206 10.71 50.0806 11.38 50.0806 12.2V15.83C50.0806 16.27 50.1106 16.66 50.1706 17H48.3406C48.2906 16.78 48.2656 16.485 48.2656 16.115C47.7956 16.845 47.0706 17.21 46.0906 17.21C45.3306 17.21 44.7156 16.99 44.2456 16.55C43.7856 16.11 43.5556 15.59 43.5556 14.99ZM46.5106 15.725C46.9806 15.725 47.3656 15.595 47.6656 15.335C47.9756 15.065 48.1306 14.625 48.1306 14.015V13.685L46.4656 13.94C45.8556 14.03 45.5506 14.34 45.5506 14.87C45.5506 15.11 45.6356 15.315 45.8056 15.485C45.9756 15.645 46.2106 15.725 46.5106 15.725ZM55.1773 11.24C54.6473 11.24 54.2023 11.425 53.8423 11.795C53.4823 12.165 53.3023 12.67 53.3023 13.31C53.3023 13.95 53.4823 14.46 53.8423 14.84C54.2123 15.21 54.6623 15.395 55.1923 15.395C55.6623 15.395 56.0373 15.275 56.3173 15.035C56.5973 14.785 56.7873 14.49 56.8873 14.15L58.6423 14.735C58.4623 15.415 58.0723 16 57.4723 16.49C56.8723 16.98 56.1123 17.225 55.1923 17.225C54.0923 17.225 53.1673 16.855 52.4173 16.115C51.6773 15.365 51.3073 14.43 51.3073 13.31C51.3073 12.18 51.6723 11.245 52.4023 10.505C53.1423 9.765 54.0523 9.395 55.1323 9.395C56.0723 9.395 56.8423 9.64 57.4423 10.13C58.0423 10.61 58.4273 11.195 58.5973 11.885L56.8123 12.485C56.5723 11.655 56.0273 11.24 55.1773 11.24ZM67.0643 9.62L64.1093 12.725L67.1243 17H64.6793L62.7293 14.18L61.9043 15.05V17H59.9093V6.14H61.9043V12.365L64.4543 9.62H67.0643ZM79.5743 8.33H76.2143V17H74.1293V8.33H70.7693V6.365H79.5743V8.33ZM81.2405 14.855C81.6105 15.225 82.0555 15.41 82.5755 15.41C83.0955 15.41 83.5355 15.225 83.8955 14.855C84.2655 14.485 84.4505 13.97 84.4505 13.31C84.4505 12.65 84.2655 12.135 83.8955 11.765C83.5355 11.395 83.0955 11.21 82.5755 11.21C82.0555 11.21 81.6105 11.395 81.2405 11.765C80.8805 12.135 80.7005 12.65 80.7005 13.31C80.7005 13.97 80.8805 14.485 81.2405 14.855ZM79.8005 10.505C80.5405 9.765 81.4655 9.395 82.5755 9.395C83.6855 9.395 84.6055 9.765 85.3355 10.505C86.0755 11.245 86.4455 12.18 86.4455 13.31C86.4455 14.44 86.0755 15.375 85.3355 16.115C84.6055 16.855 83.6855 17.225 82.5755 17.225C81.4655 17.225 80.5405 16.855 79.8005 16.115C79.0705 15.375 78.7055 14.44 78.7055 13.31C78.7055 12.18 79.0705 11.245 79.8005 10.505ZM95.4513 17.24C94.2713 17.24 93.2963 16.89 92.5263 16.19C91.7563 15.48 91.3713 14.495 91.3713 13.235V6.365H93.4413V13.085C93.4413 13.775 93.6163 14.305 93.9663 14.675C94.3263 15.035 94.8213 15.215 95.4513 15.215C96.0913 15.215 96.5863 15.035 96.9363 14.675C97.2963 14.305 97.4763 13.775 97.4763 13.085V6.365H99.5463V13.235C99.5463 14.495 99.1613 15.48 98.3913 16.19C97.6213 16.89 96.6413 17.24 95.4513 17.24ZM100.853 14.945L102.563 14.57C102.583 14.89 102.708 15.16 102.938 15.38C103.178 15.59 103.503 15.695 103.913 15.695C104.223 15.695 104.463 15.625 104.633 15.485C104.803 15.345 104.888 15.17 104.888 14.96C104.888 14.59 104.623 14.35 104.093 14.24L103.118 14.015C102.428 13.865 101.908 13.595 101.558 13.205C101.218 12.815 101.048 12.35 101.048 11.81C101.048 11.14 101.308 10.57 101.828 10.1C102.358 9.63 103.018 9.395 103.808 9.395C104.308 9.395 104.748 9.47 105.128 9.62C105.508 9.76 105.803 9.945 106.013 10.175C106.223 10.395 106.383 10.62 106.493 10.85C106.603 11.08 106.673 11.305 106.703 11.525L105.038 11.9C104.998 11.64 104.878 11.41 104.678 11.21C104.488 11.01 104.203 10.91 103.823 10.91C103.563 10.91 103.338 10.98 103.148 11.12C102.968 11.26 102.878 11.435 102.878 11.645C102.878 12.005 103.103 12.225 103.553 12.305L104.603 12.53C105.313 12.68 105.853 12.955 106.223 13.355C106.603 13.755 106.793 14.235 106.793 14.795C106.793 15.455 106.543 16.025 106.043 16.505C105.543 16.985 104.838 17.225 103.928 17.225C103.408 17.225 102.943 17.15 102.533 17C102.123 16.84 101.803 16.64 101.573 16.4C101.353 16.15 101.183 15.905 101.063 15.665C100.953 15.415 100.883 15.175 100.853 14.945ZM109.623 12.47H112.923C112.903 12.06 112.753 11.715 112.473 11.435C112.203 11.155 111.803 11.015 111.273 11.015C110.793 11.015 110.403 11.165 110.103 11.465C109.803 11.765 109.643 12.1 109.623 12.47ZM113.118 14.39L114.783 14.885C114.583 15.565 114.188 16.125 113.598 16.565C113.018 17.005 112.293 17.225 111.423 17.225C110.363 17.225 109.463 16.87 108.723 16.16C107.983 15.44 107.613 14.48 107.613 13.28C107.613 12.14 107.973 11.21 108.693 10.49C109.413 9.76 110.263 9.395 111.243 9.395C112.383 9.395 113.273 9.735 113.913 10.415C114.563 11.095 114.888 12.03 114.888 13.22C114.888 13.3 114.883 13.39 114.873 13.49C114.873 13.59 114.873 13.67 114.873 13.73L114.858 13.835H109.578C109.598 14.315 109.788 14.715 110.148 15.035C110.508 15.355 110.938 15.515 111.438 15.515C112.288 15.515 112.848 15.14 113.118 14.39ZM120.759 9.59V11.6C120.559 11.56 120.359 11.54 120.159 11.54C119.589 11.54 119.129 11.705 118.779 12.035C118.429 12.355 118.254 12.885 118.254 13.625V17H116.259V9.62H118.194V10.715C118.554 9.945 119.254 9.56 120.294 9.56C120.404 9.56 120.559 9.57 120.759 9.59ZM121.376 14.945L123.086 14.57C123.106 14.89 123.231 15.16 123.461 15.38C123.701 15.59 124.026 15.695 124.436 15.695C124.746 15.695 124.986 15.625 125.156 15.485C125.326 15.345 125.411 15.17 125.411 14.96C125.411 14.59 125.146 14.35 124.616 14.24L123.641 14.015C122.951 13.865 122.431 13.595 122.081 13.205C121.741 12.815 121.571 12.35 121.571 11.81C121.571 11.14 121.831 10.57 122.351 10.1C122.881 9.63 123.541 9.395 124.331 9.395C124.831 9.395 125.271 9.47 125.651 9.62C126.031 9.76 126.326 9.945 126.536 10.175C126.746 10.395 126.906 10.62 127.016 10.85C127.126 11.08 127.196 11.305 127.226 11.525L125.561 11.9C125.521 11.64 125.401 11.41 125.201 11.21C125.011 11.01 124.726 10.91 124.346 10.91C124.086 10.91 123.861 10.98 123.671 11.12C123.491 11.26 123.401 11.435 123.401 11.645C123.401 12.005 123.626 12.225 124.076 12.305L125.126 12.53C125.836 12.68 126.376 12.955 126.746 13.355C127.126 13.755 127.316 14.235 127.316 14.795C127.316 15.455 127.066 16.025 126.566 16.505C126.066 16.985 125.361 17.225 124.451 17.225C123.931 17.225 123.466 17.15 123.056 17C122.646 16.84 122.326 16.64 122.096 16.4C121.876 16.15 121.706 15.905 121.586 15.665C121.476 15.415 121.406 15.175 121.376 14.945Z" fill="#002855"/>
<defs>
<clipPath id="clip0_7_3758">
<rect width="24" height="24" fill="white"/>
</clipPath>
</defs>
</svg>
