<svg width="168" height="45" viewBox="0 0 168 45" fill="none" xmlns="http://www.w3.org/2000/svg">
<rect x="0.5" y="0.5" width="167" height="44" rx="2.5" fill="#002855" stroke="white"/>
<path d="M50.03 28.225C48.5 28.225 47.21 27.715 46.16 26.695C45.11 25.675 44.585 24.34 44.585 22.69C44.585 21.05 45.115 19.715 46.175 18.685C47.245 17.655 48.52 17.14 50 17.14C51.36 17.14 52.45 17.485 53.27 18.175C54.1 18.865 54.635 19.695 54.875 20.665L52.925 21.28C52.775 20.68 52.46 20.175 51.98 19.765C51.5 19.345 50.84 19.135 50 19.135C49.13 19.135 48.365 19.445 47.705 20.065C47.055 20.685 46.73 21.56 46.73 22.69C46.73 23.77 47.05 24.625 47.69 25.255C48.34 25.885 49.12 26.2 50.03 26.2C50.86 26.2 51.52 25.985 52.01 25.555C52.51 25.125 52.845 24.615 53.015 24.025L54.95 24.61C54.84 25.04 54.66 25.46 54.41 25.87C54.17 26.28 53.855 26.665 53.465 27.025C53.075 27.385 52.58 27.675 51.98 27.895C51.39 28.115 50.74 28.225 50.03 28.225ZM61.0382 20.59V22.6C60.8382 22.56 60.6382 22.54 60.4382 22.54C59.8682 22.54 59.4082 22.705 59.0582 23.035C58.7082 23.355 58.5332 23.885 58.5332 24.625V28H56.5382V20.62H58.4732V21.715C58.8332 20.945 59.5332 20.56 60.5732 20.56C60.6832 20.56 60.8382 20.57 61.0382 20.59ZM63.9733 23.47H67.2733C67.2533 23.06 67.1033 22.715 66.8233 22.435C66.5533 22.155 66.1533 22.015 65.6233 22.015C65.1433 22.015 64.7533 22.165 64.4533 22.465C64.1533 22.765 63.9933 23.1 63.9733 23.47ZM67.4683 25.39L69.1333 25.885C68.9333 26.565 68.5383 27.125 67.9483 27.565C67.3683 28.005 66.6433 28.225 65.7733 28.225C64.7133 28.225 63.8133 27.87 63.0733 27.16C62.3333 26.44 61.9633 25.48 61.9633 24.28C61.9633 23.14 62.3233 22.21 63.0433 21.49C63.7633 20.76 64.6133 20.395 65.5933 20.395C66.7333 20.395 67.6233 20.735 68.2633 21.415C68.9133 22.095 69.2383 23.03 69.2383 24.22C69.2383 24.3 69.2333 24.39 69.2233 24.49C69.2233 24.59 69.2233 24.67 69.2233 24.73L69.2083 24.835H63.9283C63.9483 25.315 64.1383 25.715 64.4983 26.035C64.8583 26.355 65.2883 26.515 65.7883 26.515C66.6383 26.515 67.1983 26.14 67.4683 25.39ZM70.5093 25.99C70.5093 25.36 70.7143 24.855 71.1243 24.475C71.5343 24.095 72.0643 23.855 72.7143 23.755L74.5293 23.485C74.8993 23.435 75.0843 23.26 75.0843 22.96C75.0843 22.68 74.9743 22.45 74.7543 22.27C74.5443 22.09 74.2393 22 73.8393 22C73.4193 22 73.0843 22.115 72.8343 22.345C72.5943 22.575 72.4593 22.86 72.4293 23.2L70.6593 22.825C70.7293 22.185 71.0443 21.62 71.6043 21.13C72.1643 20.64 72.9043 20.395 73.8243 20.395C74.9243 20.395 75.7343 20.66 76.2543 21.19C76.7743 21.71 77.0343 22.38 77.0343 23.2V26.83C77.0343 27.27 77.0643 27.66 77.1243 28H75.2943C75.2443 27.78 75.2193 27.485 75.2193 27.115C74.7493 27.845 74.0243 28.21 73.0443 28.21C72.2843 28.21 71.6693 27.99 71.1993 27.55C70.7393 27.11 70.5093 26.59 70.5093 25.99ZM73.4643 26.725C73.9343 26.725 74.3193 26.595 74.6193 26.335C74.9293 26.065 75.0843 25.625 75.0843 25.015V24.685L73.4193 24.94C72.8093 25.03 72.5043 25.34 72.5043 25.87C72.5043 26.11 72.5893 26.315 72.7593 26.485C72.9293 26.645 73.1643 26.725 73.4643 26.725ZM81.6113 18.415V20.62H83.0963V22.39H81.6113V25.48C81.6113 25.79 81.6813 26.01 81.8213 26.14C81.9613 26.27 82.1813 26.335 82.4813 26.335C82.7513 26.335 82.9563 26.315 83.0963 26.275V27.925C82.8063 28.045 82.4313 28.105 81.9713 28.105C81.2513 28.105 80.6813 27.905 80.2613 27.505C79.8413 27.095 79.6313 26.535 79.6313 25.825V22.39H78.2963V20.62H78.6713C79.0413 20.62 79.3213 20.515 79.5113 20.305C79.7113 20.085 79.8113 19.8 79.8113 19.45V18.415H81.6113ZM86.3227 23.47H89.6227C89.6027 23.06 89.4527 22.715 89.1727 22.435C88.9027 22.155 88.5027 22.015 87.9727 22.015C87.4927 22.015 87.1027 22.165 86.8027 22.465C86.5027 22.765 86.3427 23.1 86.3227 23.47ZM89.8177 25.39L91.4827 25.885C91.2827 26.565 90.8877 27.125 90.2977 27.565C89.7177 28.005 88.9927 28.225 88.1227 28.225C87.0627 28.225 86.1627 27.87 85.4227 27.16C84.6827 26.44 84.3127 25.48 84.3127 24.28C84.3127 23.14 84.6727 22.21 85.3927 21.49C86.1127 20.76 86.9627 20.395 87.9427 20.395C89.0827 20.395 89.9727 20.735 90.6127 21.415C91.2627 22.095 91.5877 23.03 91.5877 24.22C91.5877 24.3 91.5827 24.39 91.5727 24.49C91.5727 24.59 91.5727 24.67 91.5727 24.73L91.5577 24.835H86.2777C86.2977 25.315 86.4877 25.715 86.8477 26.035C87.2077 26.355 87.6377 26.515 88.1377 26.515C88.9877 26.515 89.5477 26.14 89.8177 25.39ZM97.3148 17.365H101.14C102.15 17.365 102.94 17.63 103.51 18.16C104.09 18.69 104.38 19.38 104.38 20.23C104.38 20.77 104.235 21.25 103.945 21.67C103.655 22.08 103.285 22.36 102.835 22.51C103.375 22.64 103.82 22.935 104.17 23.395C104.53 23.845 104.71 24.39 104.71 25.03C104.71 25.9 104.41 26.615 103.81 27.175C103.21 27.725 102.415 28 101.425 28H97.3148V17.365ZM99.3548 21.76H100.825C101.295 21.76 101.665 21.64 101.935 21.4C102.205 21.16 102.34 20.835 102.34 20.425C102.34 20.015 102.205 19.695 101.935 19.465C101.675 19.225 101.3 19.105 100.81 19.105H99.3548V21.76ZM99.3548 26.275H101.035C101.535 26.275 101.925 26.155 102.205 25.915C102.495 25.665 102.64 25.325 102.64 24.895C102.64 24.465 102.5 24.12 102.22 23.86C101.95 23.6 101.565 23.47 101.065 23.47H99.3548V26.275ZM110.941 20.59V22.6C110.741 22.56 110.541 22.54 110.341 22.54C109.771 22.54 109.311 22.705 108.961 23.035C108.611 23.355 108.436 23.885 108.436 24.625V28H106.441V20.62H108.376V21.715C108.736 20.945 109.436 20.56 110.476 20.56C110.586 20.56 110.741 20.57 110.941 20.59ZM112.088 25.99C112.088 25.36 112.293 24.855 112.703 24.475C113.113 24.095 113.643 23.855 114.293 23.755L116.108 23.485C116.478 23.435 116.663 23.26 116.663 22.96C116.663 22.68 116.553 22.45 116.333 22.27C116.123 22.09 115.818 22 115.418 22C114.998 22 114.663 22.115 114.413 22.345C114.173 22.575 114.038 22.86 114.008 23.2L112.238 22.825C112.308 22.185 112.623 21.62 113.183 21.13C113.743 20.64 114.483 20.395 115.403 20.395C116.503 20.395 117.313 20.66 117.833 21.19C118.353 21.71 118.613 22.38 118.613 23.2V26.83C118.613 27.27 118.643 27.66 118.703 28H116.873C116.823 27.78 116.798 27.485 116.798 27.115C116.328 27.845 115.603 28.21 114.623 28.21C113.863 28.21 113.248 27.99 112.778 27.55C112.318 27.11 112.088 26.59 112.088 25.99ZM115.043 26.725C115.513 26.725 115.898 26.595 116.198 26.335C116.508 26.065 116.663 25.625 116.663 25.015V24.685L114.998 24.94C114.388 25.03 114.083 25.34 114.083 25.87C114.083 26.11 114.168 26.315 114.338 26.485C114.508 26.645 114.743 26.725 115.043 26.725ZM122.769 23.755V28H120.774V20.62H122.709V21.535C122.919 21.175 123.219 20.9 123.609 20.71C123.999 20.52 124.409 20.425 124.839 20.425C125.709 20.425 126.369 20.7 126.819 21.25C127.279 21.79 127.509 22.49 127.509 23.35V28H125.514V23.695C125.514 23.255 125.399 22.9 125.169 22.63C124.949 22.36 124.609 22.225 124.149 22.225C123.729 22.225 123.394 22.37 123.144 22.66C122.894 22.95 122.769 23.315 122.769 23.755ZM132.999 22.24C132.469 22.24 132.024 22.425 131.664 22.795C131.304 23.165 131.124 23.67 131.124 24.31C131.124 24.95 131.304 25.46 131.664 25.84C132.034 26.21 132.484 26.395 133.014 26.395C133.484 26.395 133.859 26.275 134.139 26.035C134.419 25.785 134.609 25.49 134.709 25.15L136.464 25.735C136.284 26.415 135.894 27 135.294 27.49C134.694 27.98 133.934 28.225 133.014 28.225C131.914 28.225 130.989 27.855 130.239 27.115C129.499 26.365 129.129 25.43 129.129 24.31C129.129 23.18 129.494 22.245 130.224 21.505C130.964 20.765 131.874 20.395 132.954 20.395C133.894 20.395 134.664 20.64 135.264 21.13C135.864 21.61 136.249 22.195 136.419 22.885L134.634 23.485C134.394 22.655 133.849 22.24 132.999 22.24ZM140.076 23.665V28H138.081V17.14H140.076V21.235C140.526 20.695 141.191 20.425 142.071 20.425C142.971 20.425 143.651 20.7 144.111 21.25C144.581 21.79 144.816 22.49 144.816 23.35V28H142.821V23.695C142.821 23.255 142.706 22.9 142.476 22.63C142.256 22.36 141.916 22.225 141.456 22.225C141.046 22.225 140.716 22.36 140.466 22.63C140.226 22.9 140.096 23.245 140.076 23.665Z" fill="white"/>
<path d="M35.6071 24.1429H31.1429V28.6071C31.1429 28.8439 31.0488 29.071 30.8813 29.2385C30.7139 29.4059 30.4868 29.5 30.25 29.5C30.0132 29.5 29.7861 29.4059 29.6187 29.2385C29.4512 29.071 29.3571 28.8439 29.3571 28.6071V24.1429H24.8929C24.6561 24.1429 24.429 24.0488 24.2615 23.8813C24.0941 23.7139 24 23.4868 24 23.25C24 23.0132 24.0941 22.7861 24.2615 22.6187C24.429 22.4512 24.6561 22.3571 24.8929 22.3571H29.3571V17.8929C29.3571 17.6561 29.4512 17.429 29.6187 17.2615C29.7861 17.0941 30.0132 17 30.25 17C30.4868 17 30.7139 17.0941 30.8813 17.2615C31.0488 17.429 31.1429 17.6561 31.1429 17.8929V22.3571H35.6071C35.8439 22.3571 36.071 22.4512 36.2385 22.6187C36.4059 22.7861 36.5 23.0132 36.5 23.25C36.5 23.4868 36.4059 23.7139 36.2385 23.8813C36.071 24.0488 35.8439 24.1429 35.6071 24.1429Z" fill="white"/>
</svg>
