<svg width="168" height="45" viewBox="0 0 168 45" fill="none" xmlns="http://www.w3.org/2000/svg">
<rect x="0.5" y="0.5" width="167" height="44" rx="2.5" fill="#002855" stroke="white"/>
<path d="M43.03 28.225C41.5 28.225 40.21 27.715 39.16 26.695C38.11 25.675 37.585 24.34 37.585 22.69C37.585 21.05 38.115 19.715 39.175 18.685C40.245 17.655 41.52 17.14 43 17.14C44.36 17.14 45.45 17.485 46.27 18.175C47.1 18.865 47.635 19.695 47.875 20.665L45.925 21.28C45.775 20.68 45.46 20.175 44.98 19.765C44.5 19.345 43.84 19.135 43 19.135C42.13 19.135 41.365 19.445 40.705 20.065C40.055 20.685 39.73 21.56 39.73 22.69C39.73 23.77 40.05 24.625 40.69 25.255C41.34 25.885 42.12 26.2 43.03 26.2C43.86 26.2 44.52 25.985 45.01 25.555C45.51 25.125 45.845 24.615 46.015 24.025L47.95 24.61C47.84 25.04 47.66 25.46 47.41 25.87C47.17 26.28 46.855 26.665 46.465 27.025C46.075 27.385 45.58 27.675 44.98 27.895C44.39 28.115 43.74 28.225 43.03 28.225ZM54.0382 20.59V22.6C53.8382 22.56 53.6382 22.54 53.4382 22.54C52.8682 22.54 52.4082 22.705 52.0582 23.035C51.7082 23.355 51.5332 23.885 51.5332 24.625V28H49.5382V20.62H51.4732V21.715C51.8332 20.945 52.5332 20.56 53.5732 20.56C53.6832 20.56 53.8382 20.57 54.0382 20.59ZM56.9733 23.47H60.2733C60.2533 23.06 60.1033 22.715 59.8233 22.435C59.5533 22.155 59.1533 22.015 58.6233 22.015C58.1433 22.015 57.7533 22.165 57.4533 22.465C57.1533 22.765 56.9933 23.1 56.9733 23.47ZM60.4683 25.39L62.1333 25.885C61.9333 26.565 61.5383 27.125 60.9483 27.565C60.3683 28.005 59.6433 28.225 58.7733 28.225C57.7133 28.225 56.8133 27.87 56.0733 27.16C55.3333 26.44 54.9633 25.48 54.9633 24.28C54.9633 23.14 55.3233 22.21 56.0433 21.49C56.7633 20.76 57.6133 20.395 58.5933 20.395C59.7333 20.395 60.6233 20.735 61.2633 21.415C61.9133 22.095 62.2383 23.03 62.2383 24.22C62.2383 24.3 62.2333 24.39 62.2233 24.49C62.2233 24.59 62.2233 24.67 62.2233 24.73L62.2083 24.835H56.9283C56.9483 25.315 57.1383 25.715 57.4983 26.035C57.8583 26.355 58.2883 26.515 58.7883 26.515C59.6383 26.515 60.1983 26.14 60.4683 25.39ZM63.5093 25.99C63.5093 25.36 63.7143 24.855 64.1243 24.475C64.5343 24.095 65.0643 23.855 65.7143 23.755L67.5293 23.485C67.8993 23.435 68.0843 23.26 68.0843 22.96C68.0843 22.68 67.9743 22.45 67.7543 22.27C67.5443 22.09 67.2393 22 66.8393 22C66.4193 22 66.0843 22.115 65.8343 22.345C65.5943 22.575 65.4593 22.86 65.4293 23.2L63.6593 22.825C63.7293 22.185 64.0443 21.62 64.6043 21.13C65.1643 20.64 65.9043 20.395 66.8243 20.395C67.9243 20.395 68.7343 20.66 69.2543 21.19C69.7743 21.71 70.0343 22.38 70.0343 23.2V26.83C70.0343 27.27 70.0643 27.66 70.1243 28H68.2943C68.2443 27.78 68.2193 27.485 68.2193 27.115C67.7493 27.845 67.0243 28.21 66.0443 28.21C65.2843 28.21 64.6693 27.99 64.1993 27.55C63.7393 27.11 63.5093 26.59 63.5093 25.99ZM66.4643 26.725C66.9343 26.725 67.3193 26.595 67.6193 26.335C67.9293 26.065 68.0843 25.625 68.0843 25.015V24.685L66.4193 24.94C65.8093 25.03 65.5043 25.34 65.5043 25.87C65.5043 26.11 65.5893 26.315 65.7593 26.485C65.9293 26.645 66.1643 26.725 66.4643 26.725ZM74.6113 18.415V20.62H76.0963V22.39H74.6113V25.48C74.6113 25.79 74.6813 26.01 74.8213 26.14C74.9613 26.27 75.1813 26.335 75.4813 26.335C75.7513 26.335 75.9563 26.315 76.0963 26.275V27.925C75.8063 28.045 75.4313 28.105 74.9713 28.105C74.2513 28.105 73.6813 27.905 73.2613 27.505C72.8413 27.095 72.6313 26.535 72.6313 25.825V22.39H71.2963V20.62H71.6713C72.0413 20.62 72.3213 20.515 72.5113 20.305C72.7113 20.085 72.8113 19.8 72.8113 19.45V18.415H74.6113ZM79.3227 23.47H82.6227C82.6027 23.06 82.4527 22.715 82.1727 22.435C81.9027 22.155 81.5027 22.015 80.9727 22.015C80.4927 22.015 80.1027 22.165 79.8027 22.465C79.5027 22.765 79.3427 23.1 79.3227 23.47ZM82.8177 25.39L84.4827 25.885C84.2827 26.565 83.8877 27.125 83.2977 27.565C82.7177 28.005 81.9927 28.225 81.1227 28.225C80.0627 28.225 79.1627 27.87 78.4227 27.16C77.6827 26.44 77.3127 25.48 77.3127 24.28C77.3127 23.14 77.6727 22.21 78.3927 21.49C79.1127 20.76 79.9627 20.395 80.9427 20.395C82.0827 20.395 82.9727 20.735 83.6127 21.415C84.2627 22.095 84.5877 23.03 84.5877 24.22C84.5877 24.3 84.5827 24.39 84.5727 24.49C84.5727 24.59 84.5727 24.67 84.5727 24.73L84.5577 24.835H79.2777C79.2977 25.315 79.4877 25.715 79.8477 26.035C80.2077 26.355 80.6377 26.515 81.1377 26.515C81.9877 26.515 82.5477 26.14 82.8177 25.39ZM92.3998 22.21H94.0348C94.5448 22.21 94.9498 22.075 95.2498 21.805C95.5498 21.525 95.6998 21.155 95.6998 20.695C95.6998 20.225 95.5498 19.855 95.2498 19.585C94.9598 19.305 94.5548 19.165 94.0348 19.165H92.3998V22.21ZM94.2898 23.995H92.3848V28H90.3148V17.365H94.2898C95.3298 17.365 96.1698 17.675 96.8098 18.295C97.4598 18.915 97.7848 19.71 97.7848 20.68C97.7848 21.65 97.4598 22.445 96.8098 23.065C96.1698 23.685 95.3298 23.995 94.2898 23.995ZM103.736 20.59V22.6C103.536 22.56 103.336 22.54 103.136 22.54C102.566 22.54 102.106 22.705 101.756 23.035C101.406 23.355 101.231 23.885 101.231 24.625V28H99.2357V20.62H101.171V21.715C101.531 20.945 102.231 20.56 103.271 20.56C103.381 20.56 103.536 20.57 103.736 20.59ZM107.196 25.855C107.566 26.225 108.011 26.41 108.531 26.41C109.051 26.41 109.491 26.225 109.851 25.855C110.221 25.485 110.406 24.97 110.406 24.31C110.406 23.65 110.221 23.135 109.851 22.765C109.491 22.395 109.051 22.21 108.531 22.21C108.011 22.21 107.566 22.395 107.196 22.765C106.836 23.135 106.656 23.65 106.656 24.31C106.656 24.97 106.836 25.485 107.196 25.855ZM105.756 21.505C106.496 20.765 107.421 20.395 108.531 20.395C109.641 20.395 110.561 20.765 111.291 21.505C112.031 22.245 112.401 23.18 112.401 24.31C112.401 25.44 112.031 26.375 111.291 27.115C110.561 27.855 109.641 28.225 108.531 28.225C107.421 28.225 106.496 27.855 105.756 27.115C105.026 26.375 104.661 25.44 104.661 24.31C104.661 23.18 105.026 22.245 105.756 21.505ZM113.496 25.945L115.206 25.57C115.226 25.89 115.351 26.16 115.581 26.38C115.821 26.59 116.146 26.695 116.556 26.695C116.866 26.695 117.106 26.625 117.276 26.485C117.446 26.345 117.531 26.17 117.531 25.96C117.531 25.59 117.266 25.35 116.736 25.24L115.761 25.015C115.071 24.865 114.551 24.595 114.201 24.205C113.861 23.815 113.691 23.35 113.691 22.81C113.691 22.14 113.951 21.57 114.471 21.1C115.001 20.63 115.661 20.395 116.451 20.395C116.951 20.395 117.391 20.47 117.771 20.62C118.151 20.76 118.446 20.945 118.656 21.175C118.866 21.395 119.026 21.62 119.136 21.85C119.246 22.08 119.316 22.305 119.346 22.525L117.681 22.9C117.641 22.64 117.521 22.41 117.321 22.21C117.131 22.01 116.846 21.91 116.466 21.91C116.206 21.91 115.981 21.98 115.791 22.12C115.611 22.26 115.521 22.435 115.521 22.645C115.521 23.005 115.746 23.225 116.196 23.305L117.246 23.53C117.956 23.68 118.496 23.955 118.866 24.355C119.246 24.755 119.436 25.235 119.436 25.795C119.436 26.455 119.186 27.025 118.686 27.505C118.186 27.985 117.481 28.225 116.571 28.225C116.051 28.225 115.586 28.15 115.176 28C114.766 27.84 114.446 27.64 114.216 27.4C113.996 27.15 113.826 26.905 113.706 26.665C113.596 26.415 113.526 26.175 113.496 25.945ZM123.185 30.85H121.19V20.62H123.125V21.52C123.305 21.22 123.595 20.97 123.995 20.77C124.395 20.56 124.86 20.455 125.39 20.455C126.44 20.455 127.27 20.815 127.88 21.535C128.49 22.245 128.795 23.165 128.795 24.295C128.795 25.425 128.47 26.355 127.82 27.085C127.18 27.815 126.345 28.18 125.315 28.18C124.335 28.18 123.625 27.88 123.185 27.28V30.85ZM126.305 25.84C126.655 25.46 126.83 24.95 126.83 24.31C126.83 23.67 126.655 23.165 126.305 22.795C125.965 22.425 125.53 22.24 125 22.24C124.47 22.24 124.03 22.43 123.68 22.81C123.33 23.18 123.155 23.68 123.155 24.31C123.155 24.94 123.33 25.445 123.68 25.825C124.03 26.205 124.47 26.395 125 26.395C125.53 26.395 125.965 26.21 126.305 25.84ZM131.979 23.47H135.279C135.259 23.06 135.109 22.715 134.829 22.435C134.559 22.155 134.159 22.015 133.629 22.015C133.149 22.015 132.759 22.165 132.459 22.465C132.159 22.765 131.999 23.1 131.979 23.47ZM135.474 25.39L137.139 25.885C136.939 26.565 136.544 27.125 135.954 27.565C135.374 28.005 134.649 28.225 133.779 28.225C132.719 28.225 131.819 27.87 131.079 27.16C130.339 26.44 129.969 25.48 129.969 24.28C129.969 23.14 130.329 22.21 131.049 21.49C131.769 20.76 132.619 20.395 133.599 20.395C134.739 20.395 135.629 20.735 136.269 21.415C136.919 22.095 137.244 23.03 137.244 24.22C137.244 24.3 137.239 24.39 137.229 24.49C137.229 24.59 137.229 24.67 137.229 24.73L137.214 24.835H131.934C131.954 25.315 132.144 25.715 132.504 26.035C132.864 26.355 133.294 26.515 133.794 26.515C134.644 26.515 135.204 26.14 135.474 25.39ZM142.28 22.24C141.75 22.24 141.305 22.425 140.945 22.795C140.585 23.165 140.405 23.67 140.405 24.31C140.405 24.95 140.585 25.46 140.945 25.84C141.315 26.21 141.765 26.395 142.295 26.395C142.765 26.395 143.14 26.275 143.42 26.035C143.7 25.785 143.89 25.49 143.99 25.15L145.745 25.735C145.565 26.415 145.175 27 144.575 27.49C143.975 27.98 143.215 28.225 142.295 28.225C141.195 28.225 140.27 27.855 139.52 27.115C138.78 26.365 138.41 25.43 138.41 24.31C138.41 23.18 138.775 22.245 139.505 21.505C140.245 20.765 141.155 20.395 142.235 20.395C143.175 20.395 143.945 20.64 144.545 21.13C145.145 21.61 145.53 22.195 145.7 22.885L143.915 23.485C143.675 22.655 143.13 22.24 142.28 22.24ZM149.822 18.415V20.62H151.307V22.39H149.822V25.48C149.822 25.79 149.892 26.01 150.032 26.14C150.172 26.27 150.392 26.335 150.692 26.335C150.962 26.335 151.167 26.315 151.307 26.275V27.925C151.017 28.045 150.642 28.105 150.182 28.105C149.462 28.105 148.892 27.905 148.472 27.505C148.052 27.095 147.842 26.535 147.842 25.825V22.39H146.507V20.62H146.882C147.252 20.62 147.532 20.515 147.722 20.305C147.922 20.085 148.022 19.8 148.022 19.45V18.415H149.822Z" fill="white"/>
<path d="M28.6071 24.1429H24.1429V28.6071C24.1429 28.8439 24.0488 29.071 23.8813 29.2385C23.7139 29.4059 23.4868 29.5 23.25 29.5C23.0132 29.5 22.7861 29.4059 22.6187 29.2385C22.4512 29.071 22.3571 28.8439 22.3571 28.6071V24.1429H17.8929C17.6561 24.1429 17.429 24.0488 17.2615 23.8813C17.0941 23.7139 17 23.4868 17 23.25C17 23.0132 17.0941 22.7861 17.2615 22.6187C17.429 22.4512 17.6561 22.3571 17.8929 22.3571H22.3571V17.8929C22.3571 17.6561 22.4512 17.429 22.6187 17.2615C22.7861 17.0941 23.0132 17 23.25 17C23.4868 17 23.7139 17.0941 23.8813 17.2615C24.0488 17.429 24.1429 17.6561 24.1429 17.8929V22.3571H28.6071C28.8439 22.3571 29.071 22.4512 29.2385 22.6187C29.4059 22.7861 29.5 23.0132 29.5 23.25C29.5 23.4868 29.4059 23.7139 29.2385 23.8813C29.071 24.0488 28.8439 24.1429 28.6071 24.1429Z" fill="white"/>
</svg>
