<svg width="168" height="45" viewBox="0 0 168 45" fill="none" xmlns="http://www.w3.org/2000/svg">
<rect x="0.5" y="0.5" width="167" height="44" rx="2.5" fill="#002855" stroke="white"/>
<path d="M56.03 28.225C54.5 28.225 53.21 27.715 52.16 26.695C51.11 25.675 50.585 24.34 50.585 22.69C50.585 21.05 51.115 19.715 52.175 18.685C53.245 17.655 54.52 17.14 56 17.14C57.36 17.14 58.45 17.485 59.27 18.175C60.1 18.865 60.635 19.695 60.875 20.665L58.925 21.28C58.775 20.68 58.46 20.175 57.98 19.765C57.5 19.345 56.84 19.135 56 19.135C55.13 19.135 54.365 19.445 53.705 20.065C53.055 20.685 52.73 21.56 52.73 22.69C52.73 23.77 53.05 24.625 53.69 25.255C54.34 25.885 55.12 26.2 56.03 26.2C56.86 26.2 57.52 25.985 58.01 25.555C58.51 25.125 58.845 24.615 59.015 24.025L60.95 24.61C60.84 25.04 60.66 25.46 60.41 25.87C60.17 26.28 59.855 26.665 59.465 27.025C59.075 27.385 58.58 27.675 57.98 27.895C57.39 28.115 56.74 28.225 56.03 28.225ZM67.0382 20.59V22.6C66.8382 22.56 66.6382 22.54 66.4382 22.54C65.8682 22.54 65.4082 22.705 65.0582 23.035C64.7082 23.355 64.5332 23.885 64.5332 24.625V28H62.5382V20.62H64.4732V21.715C64.8332 20.945 65.5332 20.56 66.5732 20.56C66.6832 20.56 66.8382 20.57 67.0382 20.59ZM69.9733 23.47H73.2733C73.2533 23.06 73.1033 22.715 72.8233 22.435C72.5533 22.155 72.1533 22.015 71.6233 22.015C71.1433 22.015 70.7533 22.165 70.4533 22.465C70.1533 22.765 69.9933 23.1 69.9733 23.47ZM73.4683 25.39L75.1333 25.885C74.9333 26.565 74.5383 27.125 73.9483 27.565C73.3683 28.005 72.6433 28.225 71.7733 28.225C70.7133 28.225 69.8133 27.87 69.0733 27.16C68.3333 26.44 67.9633 25.48 67.9633 24.28C67.9633 23.14 68.3233 22.21 69.0433 21.49C69.7633 20.76 70.6133 20.395 71.5933 20.395C72.7333 20.395 73.6233 20.735 74.2633 21.415C74.9133 22.095 75.2383 23.03 75.2383 24.22C75.2383 24.3 75.2333 24.39 75.2233 24.49C75.2233 24.59 75.2233 24.67 75.2233 24.73L75.2083 24.835H69.9283C69.9483 25.315 70.1383 25.715 70.4983 26.035C70.8583 26.355 71.2883 26.515 71.7883 26.515C72.6383 26.515 73.1983 26.14 73.4683 25.39ZM76.5093 25.99C76.5093 25.36 76.7143 24.855 77.1243 24.475C77.5343 24.095 78.0643 23.855 78.7143 23.755L80.5293 23.485C80.8993 23.435 81.0843 23.26 81.0843 22.96C81.0843 22.68 80.9743 22.45 80.7543 22.27C80.5443 22.09 80.2393 22 79.8393 22C79.4193 22 79.0843 22.115 78.8343 22.345C78.5943 22.575 78.4593 22.86 78.4293 23.2L76.6593 22.825C76.7293 22.185 77.0443 21.62 77.6043 21.13C78.1643 20.64 78.9043 20.395 79.8243 20.395C80.9243 20.395 81.7343 20.66 82.2543 21.19C82.7743 21.71 83.0343 22.38 83.0343 23.2V26.83C83.0343 27.27 83.0643 27.66 83.1243 28H81.2943C81.2443 27.78 81.2193 27.485 81.2193 27.115C80.7493 27.845 80.0243 28.21 79.0443 28.21C78.2843 28.21 77.6693 27.99 77.1993 27.55C76.7393 27.11 76.5093 26.59 76.5093 25.99ZM79.4643 26.725C79.9343 26.725 80.3193 26.595 80.6193 26.335C80.9293 26.065 81.0843 25.625 81.0843 25.015V24.685L79.4193 24.94C78.8093 25.03 78.5043 25.34 78.5043 25.87C78.5043 26.11 78.5893 26.315 78.7593 26.485C78.9293 26.645 79.1643 26.725 79.4643 26.725ZM87.6113 18.415V20.62H89.0963V22.39H87.6113V25.48C87.6113 25.79 87.6813 26.01 87.8213 26.14C87.9613 26.27 88.1813 26.335 88.4813 26.335C88.7513 26.335 88.9563 26.315 89.0963 26.275V27.925C88.8063 28.045 88.4313 28.105 87.9713 28.105C87.2513 28.105 86.6813 27.905 86.2613 27.505C85.8413 27.095 85.6313 26.535 85.6313 25.825V22.39H84.2963V20.62H84.6713C85.0413 20.62 85.3213 20.515 85.5113 20.305C85.7113 20.085 85.8113 19.8 85.8113 19.45V18.415H87.6113ZM92.3227 23.47H95.6227C95.6027 23.06 95.4527 22.715 95.1727 22.435C94.9027 22.155 94.5027 22.015 93.9727 22.015C93.4927 22.015 93.1027 22.165 92.8027 22.465C92.5027 22.765 92.3427 23.1 92.3227 23.47ZM95.8177 25.39L97.4827 25.885C97.2827 26.565 96.8877 27.125 96.2977 27.565C95.7177 28.005 94.9927 28.225 94.1227 28.225C93.0627 28.225 92.1627 27.87 91.4227 27.16C90.6827 26.44 90.3127 25.48 90.3127 24.28C90.3127 23.14 90.6727 22.21 91.3927 21.49C92.1127 20.76 92.9627 20.395 93.9427 20.395C95.0827 20.395 95.9727 20.735 96.6127 21.415C97.2627 22.095 97.5877 23.03 97.5877 24.22C97.5877 24.3 97.5827 24.39 97.5727 24.49C97.5727 24.59 97.5727 24.67 97.5727 24.73L97.5577 24.835H92.2777C92.2977 25.315 92.4877 25.715 92.8477 26.035C93.2077 26.355 93.6377 26.515 94.1377 26.515C94.9877 26.515 95.5477 26.14 95.8177 25.39ZM107.29 28.24C106.11 28.24 105.135 27.89 104.365 27.19C103.595 26.48 103.21 25.495 103.21 24.235V17.365H105.28V24.085C105.28 24.775 105.455 25.305 105.805 25.675C106.165 26.035 106.66 26.215 107.29 26.215C107.93 26.215 108.425 26.035 108.775 25.675C109.135 25.305 109.315 24.775 109.315 24.085V17.365H111.385V24.235C111.385 25.495 111 26.48 110.23 27.19C109.46 27.89 108.48 28.24 107.29 28.24ZM113.041 25.945L114.751 25.57C114.771 25.89 114.896 26.16 115.126 26.38C115.366 26.59 115.691 26.695 116.101 26.695C116.411 26.695 116.651 26.625 116.821 26.485C116.991 26.345 117.076 26.17 117.076 25.96C117.076 25.59 116.811 25.35 116.281 25.24L115.306 25.015C114.616 24.865 114.096 24.595 113.746 24.205C113.406 23.815 113.236 23.35 113.236 22.81C113.236 22.14 113.496 21.57 114.016 21.1C114.546 20.63 115.206 20.395 115.996 20.395C116.496 20.395 116.936 20.47 117.316 20.62C117.696 20.76 117.991 20.945 118.201 21.175C118.411 21.395 118.571 21.62 118.681 21.85C118.791 22.08 118.861 22.305 118.891 22.525L117.226 22.9C117.186 22.64 117.066 22.41 116.866 22.21C116.676 22.01 116.391 21.91 116.011 21.91C115.751 21.91 115.526 21.98 115.336 22.12C115.156 22.26 115.066 22.435 115.066 22.645C115.066 23.005 115.291 23.225 115.741 23.305L116.791 23.53C117.501 23.68 118.041 23.955 118.411 24.355C118.791 24.755 118.981 25.235 118.981 25.795C118.981 26.455 118.731 27.025 118.231 27.505C117.731 27.985 117.026 28.225 116.116 28.225C115.596 28.225 115.131 28.15 114.721 28C114.311 27.84 113.991 27.64 113.761 27.4C113.541 27.15 113.371 26.905 113.251 26.665C113.141 26.415 113.071 26.175 113.041 25.945ZM122.161 23.47H125.461C125.441 23.06 125.291 22.715 125.011 22.435C124.741 22.155 124.341 22.015 123.811 22.015C123.331 22.015 122.941 22.165 122.641 22.465C122.341 22.765 122.181 23.1 122.161 23.47ZM125.656 25.39L127.321 25.885C127.121 26.565 126.726 27.125 126.136 27.565C125.556 28.005 124.831 28.225 123.961 28.225C122.901 28.225 122.001 27.87 121.261 27.16C120.521 26.44 120.151 25.48 120.151 24.28C120.151 23.14 120.511 22.21 121.231 21.49C121.951 20.76 122.801 20.395 123.781 20.395C124.921 20.395 125.811 20.735 126.451 21.415C127.101 22.095 127.426 23.03 127.426 24.22C127.426 24.3 127.421 24.39 127.411 24.49C127.411 24.59 127.411 24.67 127.411 24.73L127.396 24.835H122.116C122.136 25.315 122.326 25.715 122.686 26.035C123.046 26.355 123.476 26.515 123.976 26.515C124.826 26.515 125.386 26.14 125.656 25.39ZM133.647 20.59V22.6C133.447 22.56 133.247 22.54 133.047 22.54C132.477 22.54 132.017 22.705 131.667 23.035C131.317 23.355 131.142 23.885 131.142 24.625V28H129.147V20.62H131.082V21.715C131.442 20.945 132.142 20.56 133.182 20.56C133.292 20.56 133.447 20.57 133.647 20.59Z" fill="white"/>
<path d="M41.6071 24.1429H37.1429V28.6071C37.1429 28.8439 37.0488 29.071 36.8813 29.2385C36.7139 29.4059 36.4868 29.5 36.25 29.5C36.0132 29.5 35.7861 29.4059 35.6187 29.2385C35.4512 29.071 35.3571 28.8439 35.3571 28.6071V24.1429H30.8929C30.6561 24.1429 30.429 24.0488 30.2615 23.8813C30.0941 23.7139 30 23.4868 30 23.25C30 23.0132 30.0941 22.7861 30.2615 22.6187C30.429 22.4512 30.6561 22.3571 30.8929 22.3571H35.3571V17.8929C35.3571 17.6561 35.4512 17.429 35.6187 17.2615C35.7861 17.0941 36.0132 17 36.25 17C36.4868 17 36.7139 17.0941 36.8813 17.2615C37.0488 17.429 37.1429 17.6561 37.1429 17.8929V22.3571H41.6071C41.8439 22.3571 42.071 22.4512 42.2385 22.6187C42.4059 22.7861 42.5 23.0132 42.5 23.25C42.5 23.4868 42.4059 23.7139 42.2385 23.8813C42.071 24.0488 41.8439 24.1429 41.6071 24.1429Z" fill="white"/>
<rect x="0.5" y="0.5" width="167" height="44" rx="2.5" fill="#002855" stroke="white"/>
<path d="M56.03 28.225C54.5 28.225 53.21 27.715 52.16 26.695C51.11 25.675 50.585 24.34 50.585 22.69C50.585 21.05 51.115 19.715 52.175 18.685C53.245 17.655 54.52 17.14 56 17.14C57.36 17.14 58.45 17.485 59.27 18.175C60.1 18.865 60.635 19.695 60.875 20.665L58.925 21.28C58.775 20.68 58.46 20.175 57.98 19.765C57.5 19.345 56.84 19.135 56 19.135C55.13 19.135 54.365 19.445 53.705 20.065C53.055 20.685 52.73 21.56 52.73 22.69C52.73 23.77 53.05 24.625 53.69 25.255C54.34 25.885 55.12 26.2 56.03 26.2C56.86 26.2 57.52 25.985 58.01 25.555C58.51 25.125 58.845 24.615 59.015 24.025L60.95 24.61C60.84 25.04 60.66 25.46 60.41 25.87C60.17 26.28 59.855 26.665 59.465 27.025C59.075 27.385 58.58 27.675 57.98 27.895C57.39 28.115 56.74 28.225 56.03 28.225ZM67.0382 20.59V22.6C66.8382 22.56 66.6382 22.54 66.4382 22.54C65.8682 22.54 65.4082 22.705 65.0582 23.035C64.7082 23.355 64.5332 23.885 64.5332 24.625V28H62.5382V20.62H64.4732V21.715C64.8332 20.945 65.5332 20.56 66.5732 20.56C66.6832 20.56 66.8382 20.57 67.0382 20.59ZM69.9733 23.47H73.2733C73.2533 23.06 73.1033 22.715 72.8233 22.435C72.5533 22.155 72.1533 22.015 71.6233 22.015C71.1433 22.015 70.7533 22.165 70.4533 22.465C70.1533 22.765 69.9933 23.1 69.9733 23.47ZM73.4683 25.39L75.1333 25.885C74.9333 26.565 74.5383 27.125 73.9483 27.565C73.3683 28.005 72.6433 28.225 71.7733 28.225C70.7133 28.225 69.8133 27.87 69.0733 27.16C68.3333 26.44 67.9633 25.48 67.9633 24.28C67.9633 23.14 68.3233 22.21 69.0433 21.49C69.7633 20.76 70.6133 20.395 71.5933 20.395C72.7333 20.395 73.6233 20.735 74.2633 21.415C74.9133 22.095 75.2383 23.03 75.2383 24.22C75.2383 24.3 75.2333 24.39 75.2233 24.49C75.2233 24.59 75.2233 24.67 75.2233 24.73L75.2083 24.835H69.9283C69.9483 25.315 70.1383 25.715 70.4983 26.035C70.8583 26.355 71.2883 26.515 71.7883 26.515C72.6383 26.515 73.1983 26.14 73.4683 25.39ZM76.5093 25.99C76.5093 25.36 76.7143 24.855 77.1243 24.475C77.5343 24.095 78.0643 23.855 78.7143 23.755L80.5293 23.485C80.8993 23.435 81.0843 23.26 81.0843 22.96C81.0843 22.68 80.9743 22.45 80.7543 22.27C80.5443 22.09 80.2393 22 79.8393 22C79.4193 22 79.0843 22.115 78.8343 22.345C78.5943 22.575 78.4593 22.86 78.4293 23.2L76.6593 22.825C76.7293 22.185 77.0443 21.62 77.6043 21.13C78.1643 20.64 78.9043 20.395 79.8243 20.395C80.9243 20.395 81.7343 20.66 82.2543 21.19C82.7743 21.71 83.0343 22.38 83.0343 23.2V26.83C83.0343 27.27 83.0643 27.66 83.1243 28H81.2943C81.2443 27.78 81.2193 27.485 81.2193 27.115C80.7493 27.845 80.0243 28.21 79.0443 28.21C78.2843 28.21 77.6693 27.99 77.1993 27.55C76.7393 27.11 76.5093 26.59 76.5093 25.99ZM79.4643 26.725C79.9343 26.725 80.3193 26.595 80.6193 26.335C80.9293 26.065 81.0843 25.625 81.0843 25.015V24.685L79.4193 24.94C78.8093 25.03 78.5043 25.34 78.5043 25.87C78.5043 26.11 78.5893 26.315 78.7593 26.485C78.9293 26.645 79.1643 26.725 79.4643 26.725ZM87.6113 18.415V20.62H89.0963V22.39H87.6113V25.48C87.6113 25.79 87.6813 26.01 87.8213 26.14C87.9613 26.27 88.1813 26.335 88.4813 26.335C88.7513 26.335 88.9563 26.315 89.0963 26.275V27.925C88.8063 28.045 88.4313 28.105 87.9713 28.105C87.2513 28.105 86.6813 27.905 86.2613 27.505C85.8413 27.095 85.6313 26.535 85.6313 25.825V22.39H84.2963V20.62H84.6713C85.0413 20.62 85.3213 20.515 85.5113 20.305C85.7113 20.085 85.8113 19.8 85.8113 19.45V18.415H87.6113ZM92.3227 23.47H95.6227C95.6027 23.06 95.4527 22.715 95.1727 22.435C94.9027 22.155 94.5027 22.015 93.9727 22.015C93.4927 22.015 93.1027 22.165 92.8027 22.465C92.5027 22.765 92.3427 23.1 92.3227 23.47ZM95.8177 25.39L97.4827 25.885C97.2827 26.565 96.8877 27.125 96.2977 27.565C95.7177 28.005 94.9927 28.225 94.1227 28.225C93.0627 28.225 92.1627 27.87 91.4227 27.16C90.6827 26.44 90.3127 25.48 90.3127 24.28C90.3127 23.14 90.6727 22.21 91.3927 21.49C92.1127 20.76 92.9627 20.395 93.9427 20.395C95.0827 20.395 95.9727 20.735 96.6127 21.415C97.2627 22.095 97.5877 23.03 97.5877 24.22C97.5877 24.3 97.5827 24.39 97.5727 24.49C97.5727 24.59 97.5727 24.67 97.5727 24.73L97.5577 24.835H92.2777C92.2977 25.315 92.4877 25.715 92.8477 26.035C93.2077 26.355 93.6377 26.515 94.1377 26.515C94.9877 26.515 95.5477 26.14 95.8177 25.39ZM107.29 28.24C106.11 28.24 105.135 27.89 104.365 27.19C103.595 26.48 103.21 25.495 103.21 24.235V17.365H105.28V24.085C105.28 24.775 105.455 25.305 105.805 25.675C106.165 26.035 106.66 26.215 107.29 26.215C107.93 26.215 108.425 26.035 108.775 25.675C109.135 25.305 109.315 24.775 109.315 24.085V17.365H111.385V24.235C111.385 25.495 111 26.48 110.23 27.19C109.46 27.89 108.48 28.24 107.29 28.24ZM113.041 25.945L114.751 25.57C114.771 25.89 114.896 26.16 115.126 26.38C115.366 26.59 115.691 26.695 116.101 26.695C116.411 26.695 116.651 26.625 116.821 26.485C116.991 26.345 117.076 26.17 117.076 25.96C117.076 25.59 116.811 25.35 116.281 25.24L115.306 25.015C114.616 24.865 114.096 24.595 113.746 24.205C113.406 23.815 113.236 23.35 113.236 22.81C113.236 22.14 113.496 21.57 114.016 21.1C114.546 20.63 115.206 20.395 115.996 20.395C116.496 20.395 116.936 20.47 117.316 20.62C117.696 20.76 117.991 20.945 118.201 21.175C118.411 21.395 118.571 21.62 118.681 21.85C118.791 22.08 118.861 22.305 118.891 22.525L117.226 22.9C117.186 22.64 117.066 22.41 116.866 22.21C116.676 22.01 116.391 21.91 116.011 21.91C115.751 21.91 115.526 21.98 115.336 22.12C115.156 22.26 115.066 22.435 115.066 22.645C115.066 23.005 115.291 23.225 115.741 23.305L116.791 23.53C117.501 23.68 118.041 23.955 118.411 24.355C118.791 24.755 118.981 25.235 118.981 25.795C118.981 26.455 118.731 27.025 118.231 27.505C117.731 27.985 117.026 28.225 116.116 28.225C115.596 28.225 115.131 28.15 114.721 28C114.311 27.84 113.991 27.64 113.761 27.4C113.541 27.15 113.371 26.905 113.251 26.665C113.141 26.415 113.071 26.175 113.041 25.945ZM122.161 23.47H125.461C125.441 23.06 125.291 22.715 125.011 22.435C124.741 22.155 124.341 22.015 123.811 22.015C123.331 22.015 122.941 22.165 122.641 22.465C122.341 22.765 122.181 23.1 122.161 23.47ZM125.656 25.39L127.321 25.885C127.121 26.565 126.726 27.125 126.136 27.565C125.556 28.005 124.831 28.225 123.961 28.225C122.901 28.225 122.001 27.87 121.261 27.16C120.521 26.44 120.151 25.48 120.151 24.28C120.151 23.14 120.511 22.21 121.231 21.49C121.951 20.76 122.801 20.395 123.781 20.395C124.921 20.395 125.811 20.735 126.451 21.415C127.101 22.095 127.426 23.03 127.426 24.22C127.426 24.3 127.421 24.39 127.411 24.49C127.411 24.59 127.411 24.67 127.411 24.73L127.396 24.835H122.116C122.136 25.315 122.326 25.715 122.686 26.035C123.046 26.355 123.476 26.515 123.976 26.515C124.826 26.515 125.386 26.14 125.656 25.39ZM133.647 20.59V22.6C133.447 22.56 133.247 22.54 133.047 22.54C132.477 22.54 132.017 22.705 131.667 23.035C131.317 23.355 131.142 23.885 131.142 24.625V28H129.147V20.62H131.082V21.715C131.442 20.945 132.142 20.56 133.182 20.56C133.292 20.56 133.447 20.57 133.647 20.59Z" fill="white"/>
<path d="M41.6071 24.1429H37.1429V28.6071C37.1429 28.8439 37.0488 29.071 36.8813 29.2385C36.7139 29.4059 36.4868 29.5 36.25 29.5C36.0132 29.5 35.7861 29.4059 35.6187 29.2385C35.4512 29.071 35.3571 28.8439 35.3571 28.6071V24.1429H30.8929C30.6561 24.1429 30.429 24.0488 30.2615 23.8813C30.0941 23.7139 30 23.4868 30 23.25C30 23.0132 30.0941 22.7861 30.2615 22.6187C30.429 22.4512 30.6561 22.3571 30.8929 22.3571H35.3571V17.8929C35.3571 17.6561 35.4512 17.429 35.6187 17.2615C35.7861 17.0941 36.0132 17 36.25 17C36.4868 17 36.7139 17.0941 36.8813 17.2615C37.0488 17.429 37.1429 17.6561 37.1429 17.8929V22.3571H41.6071C41.8439 22.3571 42.071 22.4512 42.2385 22.6187C42.4059 22.7861 42.5 23.0132 42.5 23.25C42.5 23.4868 42.4059 23.7139 42.2385 23.8813C42.071 24.0488 41.8439 24.1429 41.6071 24.1429Z" fill="white"/>
</svg>
