<svg width="183" height="47" viewBox="0 0 183 47" fill="none" xmlns="http://www.w3.org/2000/svg">
<rect x="0.417969" y="0.881836" width="181.832" height="45.4579" rx="4.7352" fill="#002855"/>
<path d="M77.3586 31.1406H75.3129V19.0545H82.8306V20.9808H77.3586V24.3731H82.268V26.2653H77.3586V31.1406ZM86.5418 31.1406H84.5814V22.8389H86.5418V31.1406ZM84.6496 20.8274C84.3996 20.5773 84.2746 20.2762 84.2746 19.9239C84.2746 19.5716 84.3996 19.2704 84.6496 19.0204C84.8996 18.759 85.2008 18.6283 85.5531 18.6283C85.9168 18.6283 86.2236 18.7533 86.4736 19.0034C86.7236 19.2534 86.8487 19.5602 86.8487 19.9239C86.8487 20.2762 86.7236 20.5773 86.4736 20.8274C86.2236 21.0774 85.9168 21.2024 85.5531 21.2024C85.2008 21.2024 84.8996 21.0774 84.6496 20.8274ZM91.0702 26.3505V31.1406H89.0928V22.8389H91.0191V23.9469C91.2805 23.4923 91.6271 23.1571 92.059 22.9412C92.5022 22.7139 92.9738 22.6002 93.4738 22.6002C94.4512 22.6002 95.1955 22.9071 95.707 23.5207C96.2184 24.1344 96.4741 24.9243 96.4741 25.8902V31.1406H94.4966V26.2312C94.4966 25.6743 94.3603 25.2311 94.0875 24.9015C93.8148 24.5606 93.3829 24.3901 92.792 24.3901C92.2465 24.3901 91.8203 24.5776 91.5135 24.9527C91.218 25.3163 91.0702 25.7823 91.0702 26.3505ZM100.211 26.9642C100.211 27.7597 100.416 28.4018 100.825 28.8905C101.234 29.3678 101.774 29.6064 102.444 29.6064C103.092 29.6064 103.62 29.3621 104.029 28.8734C104.439 28.3847 104.643 27.7426 104.643 26.9471C104.643 26.163 104.444 25.5379 104.047 25.072C103.649 24.606 103.12 24.3731 102.461 24.3731C101.802 24.3731 101.262 24.6117 100.842 25.089C100.421 25.555 100.211 26.18 100.211 26.9642ZM106.552 18.7988V29.6235C106.552 30.1803 106.581 30.686 106.638 31.1406H104.745C104.689 30.8224 104.66 30.4644 104.66 30.0667C104.456 30.4417 104.137 30.7486 103.706 30.9872C103.274 31.2259 102.779 31.3452 102.223 31.3452C101.041 31.3452 100.08 30.9304 99.3416 30.1008C98.6029 29.2712 98.2336 28.2256 98.2336 26.9642C98.2336 25.7482 98.6029 24.7197 99.3416 23.8787C100.092 23.0378 101.041 22.6173 102.188 22.6173C102.848 22.6173 103.376 22.7366 103.774 22.9752C104.183 23.2139 104.467 23.4923 104.626 23.8105V18.7988H106.552Z" fill="white"/>
</svg>
